<?xml version="1.0" encoding="iso-8859-1"?>
<!-- Generator: Adobe Illustrator 18.0.0, SVG Export Plug-In . SVG Version: 6.00 Build 0)  -->
<!DOCTYPE svg PUBLIC "-//W3C//DTD SVG 1.1//EN" "http://www.w3.org/Graphics/SVG/1.1/DTD/svg11.dtd">
<svg version="1.1" id="Capa_1" xmlns="http://www.w3.org/2000/svg" xmlns:xlink="http://www.w3.org/1999/xlink" x="0px" y="0px"
	 viewBox="0 0 448.881 448.881" style="enable-background:new 0 0 448.881 448.881;" xml:space="preserve">
<g>
	<path d="M189.82,138.531c-8.92,0-16.611,6.307-18.353,15.055l-11.019,55.306c-3.569,20.398-7.394,40.53-9.946,59.652h-0.513
		c-2.543-19.122-5.35-37.474-9.176-57.615l-11.85-62.35c-1.112-5.832-6.206-10.048-12.139-10.048H95.819
		c-5.854,0-10.909,4.114-12.099,9.853l-12.497,60.507c-4.332,21.159-8.414,41.805-11.213,60.413h-0.513
		c-2.8-17.332-6.369-39.511-10.196-59.901l-10.024-54.643c-1.726-9.403-9.922-16.23-19.479-16.23c-6.05,0-11.774,2.77-15.529,7.52
		c-3.755,4.751-5.133,10.965-3.733,16.851l32.747,137.944c1.322,5.568,6.299,9.503,12.022,9.503h22.878
		c5.792,0,10.809-4.028,12.061-9.689l14.176-64.241c4.083-17.334,6.883-33.648,9.946-53.019h0.507
		c2.037,19.627,4.845,35.685,8.157,53.019l12.574,63.96c1.136,5.794,6.222,9.97,12.125,9.97h22.325
		c5.638,0,10.561-3.811,11.968-9.269l35.919-139.158c1.446-5.607,0.225-11.564-3.321-16.136
		C201.072,141.207,195.612,138.531,189.82,138.531z"/>
	<path d="M253.516,138.531c-10.763,0-19.495,8.734-19.495,19.503v132.821c0,10.763,8.732,19.495,19.495,19.495
		c10.771,0,19.503-8.732,19.503-19.495V158.034C273.019,147.265,264.287,138.531,253.516,138.531z"/>
	<path d="M431.034,138.531c-9.861,0-17.847,7.995-17.847,17.847v32.373c0,25.748,0.761,48.945,3.313,71.637h-0.763
		c-7.652-19.379-17.847-40.786-28.041-58.891l-32.14-56.704c-2.193-3.865-6.299-6.26-10.747-6.26h-25.818
		c-6.827,0-12.357,5.529-12.357,12.357v141.615c0,9.86,7.987,17.847,17.847,17.847c9.853,0,17.84-7.987,17.84-17.847v-33.905
		c0-28.042-0.514-52.258-1.532-74.941l0.769-0.256c8.406,20.141,19.627,42.318,29.823,60.671l33.174,59.909
		c2.177,3.927,6.321,6.369,10.809,6.369h21.159c6.828,0,12.357-5.53,12.357-12.357V156.378
		C448.881,146.526,440.894,138.531,431.034,138.531z"/>
</g>
<g>
</g>
<g>
</g>
<g>
</g>
<g>
</g>
<g>
</g>
<g>
</g>
<g>
</g>
<g>
</g>
<g>
</g>
<g>
</g>
<g>
</g>
<g>
</g>
<g>
</g>
<g>
</g>
<g>
</g>
</svg>
